<svg width="300" height="300" viewBox="0 0 300 300" fill="none" xmlns="http://www.w3.org/2000/svg">
<g id="Type=10">
<g id="coin">
<g id="coin base">
<path id="coin background" d="M150 269.777C217.144 269.777 271.575 215.706 271.575 149.007C271.575 82.3073 217.144 28.2368 150 28.2368C82.856 28.2368 28.425 82.3073 28.425 149.007C28.425 215.706 82.856 269.777 150 269.777Z" fill="#FFBF3E"/>
<g id="coin gloss">
<path id="Vector" d="M102.891 43.2775C101.491 43.2775 100.05 44.3294 98.783 44.9463C98.543 45.0636 98.304 45.1798 98.065 45.299C98.157 45.2533 98.392 45.299 98.392 45.4242C98.1809 45.4031 97.9677 45.4145 97.76 45.4579C97.7909 45.4746 97.825 45.4845 97.86 45.4867C97.5415 45.5631 97.243 45.706 96.9843 45.9059C96.7257 46.1058 96.5129 46.3581 96.36 46.646C96.1675 46.9779 96.0566 47.3502 96.0362 47.7328C96.0159 48.1153 96.0868 48.4971 96.243 48.8473C96.4011 49.1998 96.6403 49.5105 96.9413 49.7545C97.2423 49.9984 97.5967 50.1688 97.976 50.252C98.9106 50.3367 99.845 50.0873 100.611 49.5487C101.54 49.091 102.475 48.6463 103.416 48.2145C104.171 47.9625 104.797 47.4279 105.161 46.7245C105.318 46.3495 105.38 45.9421 105.342 45.5379C105.304 45.1336 105.167 44.7447 104.943 44.405C104.719 44.0652 104.416 43.7849 104.058 43.5884C103.7 43.3919 103.3 43.2851 102.891 43.2775V43.2775ZM90.05 50.098C88.742 50.098 87.44 51.2751 86.394 51.9546C85.1313 52.7738 83.885 53.6172 82.655 54.4847C80.341 56.1165 78.0887 57.8301 75.898 59.6255C71.4794 63.2465 67.333 67.1835 63.492 71.4049C62.775 72.1937 61.831 72.9745 61.731 74.1C61.6821 74.6883 61.8458 75.2747 62.1927 75.754C62.5396 76.2333 63.047 76.5742 63.624 76.7155C65.046 77.0533 65.902 76.1195 66.759 75.1679C67.759 74.0533 68.784 72.9589 69.834 71.8847C73.7711 67.846 78.0095 64.1083 82.513 60.7033C84.9943 58.8278 87.5513 57.0569 90.184 55.3907C91.32 54.6725 92.572 54.0318 92.533 52.498C92.5096 51.8574 92.2385 51.2504 91.776 50.8034C91.3135 50.3564 90.6953 50.1037 90.05 50.098V50.098Z" fill="#FFF5E4"/>
<path id="Vector_2" d="M201.935 252.715C201.843 252.761 201.608 252.715 201.608 252.59C201.819 252.611 202.032 252.6 202.24 252.556C202.209 252.54 202.175 252.53 202.14 252.527C202.459 252.451 202.757 252.308 203.016 252.108C203.274 251.908 203.487 251.656 203.64 251.368C203.833 251.036 203.943 250.664 203.964 250.281C203.984 249.899 203.913 249.517 203.757 249.167C203.599 248.814 203.36 248.504 203.059 248.26C202.758 248.016 202.403 247.845 202.024 247.762C201.089 247.677 200.155 247.927 199.389 248.466C198.46 248.923 197.525 249.368 196.584 249.8C195.829 250.052 195.203 250.586 194.839 251.29C194.682 251.665 194.62 252.074 194.658 252.479C194.696 252.884 194.833 253.273 195.058 253.613C195.282 253.954 195.587 254.234 195.946 254.43C196.305 254.626 196.707 254.732 197.116 254.739M209.956 247.919C211.264 247.919 212.566 246.742 213.612 246.063C214.875 245.243 216.121 244.4 217.351 243.532C219.665 241.901 221.917 240.187 224.108 238.392C228.526 234.771 232.672 230.834 236.513 226.612C237.23 225.823 238.174 225.043 238.274 223.917C238.323 223.329 238.159 222.742 237.812 222.263C237.465 221.784 236.958 221.443 236.381 221.302C234.959 220.964 234.103 221.898 233.246 222.849C232.246 223.964 231.221 225.058 230.171 226.132C226.234 230.171 221.996 233.908 217.493 237.313C215.012 239.188 212.455 240.959 209.822 242.625C208.686 243.344 207.434 243.984 207.473 245.518C207.497 246.157 207.768 246.763 208.229 247.209C208.69 247.655 209.306 247.908 209.95 247.915L209.956 247.919ZM244.693 214.709C246.526 214.709 247.507 212.515 248.348 211.208C249.171 209.928 250.386 208.464 249.448 206.917C249.126 206.396 248.623 206.012 248.035 205.836C247.446 205.66 246.813 205.705 246.256 205.963C245.069 206.525 244.429 208.156 243.747 209.2C243.08 210.222 242.047 211.278 242.239 212.59C242.328 213.173 242.623 213.707 243.072 214.094C243.52 214.481 244.093 214.698 244.687 214.705L244.693 214.709Z" fill="#FFF5E4"/>
</g>
</g>
<path id="coin border" d="M150 28.2368C174.045 28.2368 197.551 35.3198 217.543 48.5902C237.536 61.8605 253.119 80.7222 262.321 102.79C271.522 124.858 273.93 149.141 269.239 172.568C264.548 195.995 252.969 217.514 235.967 234.404C218.964 251.294 197.301 262.796 173.718 267.456C150.135 272.116 125.69 269.724 103.475 260.583C81.2603 251.443 62.2729 235.963 48.9141 216.103C35.5552 196.242 28.425 172.893 28.425 149.007C28.425 116.976 41.2338 86.2582 64.0335 63.6095C86.8332 40.9607 117.756 28.2368 150 28.2368ZM150 18.3775C123.992 18.3773 98.5673 26.0385 76.942 40.3922C55.3168 54.7459 38.462 75.1474 28.509 99.0169C18.556 122.886 15.9518 149.152 21.0259 174.491C26.0999 199.831 38.6242 223.107 57.015 241.376C81.6762 265.874 115.124 279.636 150 279.636C184.876 279.636 218.324 265.874 242.985 241.376C267.646 216.878 281.501 183.652 281.501 149.007C281.501 114.361 267.646 81.1353 242.985 56.6374C230.802 44.4694 216.311 34.8225 200.35 28.2552C184.39 21.6878 167.276 18.3305 150 18.3775Z" fill="#3A2500"/>
</g>
<g id="Group 3">
<path id="Vector_3" d="M149.283 242.946C201.354 242.946 243.566 201.014 243.566 149.288C243.566 97.5615 201.354 55.6292 149.283 55.6292C97.2119 55.6292 55 97.5615 55 149.288C55 201.014 97.2119 242.946 149.283 242.946Z" fill="#F49C00"/>
<path id="Vector_4" d="M149 233.444C194.84 233.444 232 195.862 232 149.503C232 103.144 194.84 65.5629 149 65.5629C103.16 65.5629 66 103.144 66 149.503C66 195.862 103.16 233.444 149 233.444Z" fill="#FFD45A"/>
</g>
<path id="10" d="M143.077 112.797L143.437 109.634L140.258 109.463L115.49 108.128L114.57 108.078L113.781 108.553L87.9573 124.097L85.1303 125.799L87.0925 128.452L99.8605 145.713L101.513 147.947L103.868 146.469L111.272 141.82V159.071L91.5869 158.003L88.704 157.847L88.4372 160.722L86.5172 181.416L86.2132 184.693H89.5044H157.952H161.43L160.92 181.253L158.434 164.473L177.818 183.816L179.116 185.112L180.861 184.547L207.069 176.059L208.884 175.472L209.122 173.579L214.402 131.523L214.567 130.206L213.704 129.198L197.288 110.03L196.454 109.057L195.175 108.986L177.991 108.032L176.768 107.965L175.847 108.773L161.063 121.742L160.197 122.502L160.062 123.645L156.182 156.45L154.31 156.688L137.845 158.78L143.077 112.797ZM185.374 150.64L184.188 149.65L185.552 139.544L186.086 139.77L186.723 149.69L185.374 150.64Z" fill="white" stroke="#3A2500" stroke-width="6"/>
<path id="Vector 9" d="M189 137.583L183 135.099L181 150.993L185 154.47L190 150.993L189 137.583Z" fill="#3A2500" stroke="#3A2500" stroke-width="9"/>
</g>
</svg>
