<svg width="300" height="300" viewBox="0 0 300 300" fill="none" xmlns="http://www.w3.org/2000/svg">
<g id="Type=Snow">
<g id="shadow">
<mask id="path-1-outside-1_27_65" maskUnits="userSpaceOnUse" x="78" y="171" width="144" height="77" fill="black">
<rect fill="white" x="78" y="171" width="144" height="77"/>
<path fill-rule="evenodd" clip-rule="evenodd" d="M144.053 173H154.947C156.553 173 158.092 173.638 159.227 174.773C160.362 175.909 161 177.449 161 179.054V224.18C164.692 215.916 170.819 206.546 180.652 201.565C184.266 199.737 188.51 198.806 193.262 198.806C200.222 198.806 208.189 200.867 216.301 204.765C217.32 205.256 218.19 206.011 218.821 206.95C219.451 207.89 219.82 208.981 219.89 210.11C220.592 221.401 217.927 230.228 212.182 235.639C206.806 240.702 199.887 245.388 185.781 245.388C179.17 245.388 171.613 244.366 162.677 242.264C161.833 242.066 161.032 241.717 160.313 241.235C159.225 243.491 156.464 246 149.571 246C143.045 246 140.178 243.806 138.932 241.677C138.422 241.936 137.882 242.133 137.323 242.264C128.387 244.366 120.83 245.388 114.219 245.388C100.114 245.388 93.1944 240.703 87.8185 235.639C82.0732 230.228 79.4077 221.401 80.1102 210.11C80.1794 208.981 80.5483 207.89 81.1791 206.95C81.8099 206.01 82.6797 205.256 83.6991 204.764C91.811 200.866 99.7779 198.805 106.738 198.805C111.491 198.805 115.734 199.734 119.348 201.564C128.341 206.121 134.235 214.348 138 222.042V179.054C138 177.449 138.638 175.909 139.773 174.773C140.908 173.638 142.447 173 144.053 173Z"/>
</mask>
<path fill-rule="evenodd" clip-rule="evenodd" d="M144.053 173H154.947C156.553 173 158.092 173.638 159.227 174.773C160.362 175.909 161 177.449 161 179.054V224.18C164.692 215.916 170.819 206.546 180.652 201.565C184.266 199.737 188.51 198.806 193.262 198.806C200.222 198.806 208.189 200.867 216.301 204.765C217.32 205.256 218.19 206.011 218.821 206.95C219.451 207.89 219.82 208.981 219.89 210.11C220.592 221.401 217.927 230.228 212.182 235.639C206.806 240.702 199.887 245.388 185.781 245.388C179.17 245.388 171.613 244.366 162.677 242.264C161.833 242.066 161.032 241.717 160.313 241.235C159.225 243.491 156.464 246 149.571 246C143.045 246 140.178 243.806 138.932 241.677C138.422 241.936 137.882 242.133 137.323 242.264C128.387 244.366 120.83 245.388 114.219 245.388C100.114 245.388 93.1944 240.703 87.8185 235.639C82.0732 230.228 79.4077 221.401 80.1102 210.11C80.1794 208.981 80.5483 207.89 81.1791 206.95C81.8099 206.01 82.6797 205.256 83.6991 204.764C91.811 200.866 99.7779 198.805 106.738 198.805C111.491 198.805 115.734 199.734 119.348 201.564C128.341 206.121 134.235 214.348 138 222.042V179.054C138 177.449 138.638 175.909 139.773 174.773C140.908 173.638 142.447 173 144.053 173Z" fill="#3A2500"/>
<path d="M159.227 174.773L157.813 176.187L157.813 176.187L159.227 174.773ZM161 224.18H159L162.826 224.996L161 224.18ZM180.652 201.565L179.749 199.781L179.748 199.781L180.652 201.565ZM216.301 204.765L217.17 202.963L217.167 202.962L216.301 204.765ZM219.89 210.11L217.894 210.233L217.894 210.234L219.89 210.11ZM212.182 235.639L213.553 237.095L213.553 237.095L212.182 235.639ZM162.677 242.264L163.135 240.317L163.134 240.317L162.677 242.264ZM160.313 241.235L161.427 239.574L159.513 238.29L158.512 240.366L160.313 241.235ZM138.932 241.677L140.658 240.667L139.708 239.042L138.028 239.893L138.932 241.677ZM137.323 242.264L136.866 240.317L136.865 240.318L137.323 242.264ZM87.8185 235.639L89.1897 234.183L89.1897 234.183L87.8185 235.639ZM80.1102 210.11L82.1064 210.234L82.1065 210.232L80.1102 210.11ZM81.1791 206.95L82.8397 208.065H82.8397L81.1791 206.95ZM83.6991 204.764L82.8328 202.961L82.8299 202.962L83.6991 204.764ZM119.348 201.564L120.252 199.78L120.252 199.78L119.348 201.564ZM138 222.042L136.204 222.921L140 222.042H138ZM139.773 174.773L138.358 173.359V173.359L139.773 174.773ZM154.947 171H144.053V175H154.947V171ZM160.642 173.359C159.132 171.849 157.083 171 154.947 171V175C156.022 175 157.053 175.427 157.813 176.187L160.642 173.359ZM163 179.054C163 176.918 162.152 174.87 160.642 173.359L157.813 176.187C158.573 176.948 159 177.979 159 179.054H163ZM163 224.18V179.054H159V224.18H163ZM179.748 199.781C169.321 205.062 162.946 214.919 159.174 223.364L162.826 224.996C166.437 216.912 172.316 208.029 181.556 203.349L179.748 199.781ZM193.262 196.806C188.249 196.806 183.687 197.789 179.749 199.781L181.555 203.35C184.845 201.685 188.771 200.806 193.262 200.806V196.806ZM217.167 202.962C208.861 198.971 200.596 196.806 193.262 196.806V200.806C199.848 200.806 207.517 202.763 215.435 206.567L217.167 202.962ZM220.481 205.836C219.652 204.601 218.509 203.61 217.17 202.963L215.432 206.566C216.131 206.903 216.727 207.421 217.16 208.065L220.481 205.836ZM221.886 209.988C221.795 208.503 221.31 207.07 220.481 205.836L217.16 208.065C217.593 208.71 217.846 209.458 217.894 210.233L221.886 209.988ZM213.553 237.095C219.894 231.123 222.609 221.604 221.886 209.986L217.894 210.234C218.576 221.198 215.96 229.333 210.81 234.183L213.553 237.095ZM185.781 247.388C193.063 247.388 198.596 246.177 203.05 244.247C207.504 242.318 210.77 239.716 213.553 237.095L210.81 234.183C208.217 236.626 205.335 238.898 201.46 240.577C197.584 242.256 192.605 243.388 185.781 243.388V247.388ZM162.219 244.211C171.251 246.336 178.969 247.388 185.781 247.388V243.388C179.371 243.388 171.974 242.396 163.135 240.317L162.219 244.211ZM159.199 242.896C160.118 243.512 161.141 243.958 162.22 244.211L163.134 240.317C162.524 240.174 161.946 239.922 161.427 239.574L159.199 242.896ZM149.571 248C153.251 248 156.013 247.331 158.067 246.224C160.147 245.104 161.398 243.59 162.115 242.104L158.512 240.366C158.141 241.136 157.467 242.004 156.171 242.703C154.849 243.415 152.784 244 149.571 244V248ZM137.206 242.687C138.914 245.607 142.567 248 149.571 248V244C143.523 244 141.442 242.006 140.658 240.667L137.206 242.687ZM137.78 244.211C138.495 244.044 139.185 243.792 139.836 243.461L138.028 239.893C137.66 240.08 137.27 240.223 136.866 240.317L137.78 244.211ZM114.219 247.388C121.031 247.388 128.749 246.336 137.781 244.211L136.865 240.318C128.026 242.396 120.629 243.388 114.219 243.388V247.388ZM86.4472 237.095C89.2298 239.716 92.4961 242.318 96.9505 244.248C101.405 246.177 106.938 247.388 114.219 247.388V243.388C107.395 243.388 102.417 242.256 98.5405 240.577C94.6647 238.898 91.7831 236.626 89.1897 234.183L86.4472 237.095ZM78.1141 209.986C77.3913 221.604 80.1064 231.123 86.4472 237.095L89.1897 234.183C84.0399 229.333 81.4242 221.198 82.1064 210.234L78.1141 209.986ZM79.5185 205.835C78.6896 207.07 78.2048 208.504 78.114 209.988L82.1065 210.232C82.1539 209.457 82.407 208.709 82.8397 208.065L79.5185 205.835ZM82.8299 202.962C81.4904 203.609 80.3474 204.6 79.5185 205.835L82.8397 208.065C83.2724 207.42 83.8691 206.902 84.5683 206.565L82.8299 202.962ZM106.738 196.805C99.4035 196.805 91.1387 198.97 82.8328 202.961L84.5653 206.566C92.4832 202.762 100.152 200.805 106.738 200.805V196.805ZM120.252 199.78C116.313 197.785 111.751 196.805 106.738 196.805V200.805C111.232 200.805 115.155 201.682 118.444 203.348L120.252 199.78ZM139.796 221.163C135.937 213.276 129.793 204.614 120.252 199.78L118.444 203.348C126.89 207.627 132.532 215.419 136.204 222.921L139.796 221.163ZM136 179.054V222.042H140V179.054H136ZM138.358 173.359C136.848 174.87 136 176.918 136 179.054H140C140 177.979 140.427 176.948 141.187 176.187L138.358 173.359ZM144.053 171C141.917 171 139.868 171.849 138.358 173.359L141.187 176.187C141.947 175.427 142.978 175 144.053 175V171Z" fill="#3A2500" mask="url(#path-1-outside-1_27_65)"/>
</g>
<g id="roots">
<path id="Vector" d="M155 239.322C155 241.598 144 241.52 144 239.322V181H155V239.322Z" fill="#11A52D"/>
<path id="Vector_2" d="M155 238.314V215C152.54 220.068 151.883 238.755 145 239.087C147.112 240.5 155 240.296 155 238.314Z" fill="#1A822B"/>
<path id="Vector_3" d="M154.947 179.054V238.243C154.947 239.39 152.271 239.946 149.571 239.946C146.823 239.946 144.053 239.368 144.053 238.243V179.054H154.947ZM154.947 173H144.053C142.447 173 140.908 173.638 139.773 174.773C138.638 175.909 138 177.449 138 179.054V238.243C138 240.062 138.835 246 149.571 246C160.176 246 161 240.062 161 238.243V179.054C161 177.449 160.362 175.909 159.227 174.773C158.092 173.638 156.553 173 154.947 173Z" fill="#3A2500"/>
</g>
<g id="head">
<g id="circles">
<path id="border" d="M149.665 41.9836C204.136 41.9836 248.293 74.3501 248.293 114.277C248.293 154.203 204.136 186.569 149.665 186.569C95.194 186.569 51.037 154.203 51.037 114.277C51.037 74.3501 95.194 41.9836 149.665 41.9836ZM149.665 32C121.565 32 95.03 40.1093 74.94 54.8352C53.707 70.3998 42.013 91.5094 42.013 114.277C42.013 137.045 53.707 158.159 74.94 173.719C95.03 188.445 121.568 196.554 149.665 196.554C177.762 196.554 204.3 188.442 224.39 173.719C245.624 158.155 257.317 137.045 257.317 114.277C257.317 91.5103 245.624 70.3998 224.39 54.8352C204.3 40.1093 177.763 32 149.665 32Z" fill="#3A2500"/>
<path id="third" d="M149.665 186.57C204.136 186.57 248.293 154.204 248.293 114.277C248.293 74.3512 204.136 41.9846 149.665 41.9846C95.1942 41.9846 51.037 74.3512 51.037 114.277C51.037 154.204 95.1942 186.57 149.665 186.57Z" fill="#2698FF"/>
<path id="second" d="M149.498 169C128.529 169 109.014 162.521 94.546 150.753C87.2458 144.821 75 132.213 75 114.498C75 96.7822 87.2467 84.1829 94.5496 78.2468C109.018 66.4826 128.532 60 149.502 60C170.472 60 189.986 66.479 204.454 78.2468C211.754 84.1793 224 96.7876 224 114.502C224 132.217 211.753 144.821 204.454 150.758C189.984 162.522 170.468 169 149.498 169Z" fill="#80E1FF"/>
<path id="first" d="M149.499 151C133.597 151 118.999 145.582 108.386 135.743C104.962 132.57 97 124.146 97 114.5C97 104.854 104.962 96.4304 108.386 93.2565C118.997 83.4184 133.598 78 149.5 78C165.402 78 180 83.4184 190.614 93.2565C194.038 96.4304 202 104.854 202 114.5C202 124.146 194.038 132.57 190.614 135.743C180.003 145.578 165.402 151 149.499 151Z" fill="#DEF9FF"/>
</g>
<g id="eyes">
<rect id="Rectangle 1" x="129" y="101" width="12" height="27" rx="5" fill="#3A2500"/>
<rect id="Rectangle 2" x="159" y="101" width="12" height="27" rx="5" fill="#3A2500"/>
</g>
<g id="gloss">
<path id="Vector_4" d="M105.812 54C104.799 54.1385 103.836 54.5068 103.005 55.0736C102.224 55.4673 101.463 55.879 100.693 56.2823C100.574 56.3446 100.432 56.4227 100.286 56.5018L99.6689 56.8396C99.4031 56.986 99.1385 57.1335 98.875 57.282C97.506 58.0515 95.1265 58.9351 94.4442 60.4003C94.2823 60.7612 94.2112 61.1527 94.2364 61.544C94.2617 61.9353 94.3826 62.3157 94.5898 62.6553C94.797 62.9949 95.0847 63.2845 95.4303 63.5011C95.7759 63.7178 96.1699 63.8557 96.5814 63.9039C97.4567 63.9211 98.309 63.6384 98.981 63.108C99.9979 62.4964 101.026 61.9021 102.065 61.325C103.171 60.7106 104.287 60.116 105.415 59.541C106.431 59.198 107.339 58.6168 108.054 57.852C108.299 57.4711 108.434 57.0357 108.445 56.5897C108.455 56.1437 108.341 55.703 108.114 55.3122C107.886 54.9213 107.554 54.5941 107.15 54.3637C106.745 54.1333 106.284 54.0078 105.812 54ZM88.5005 64.6323C87.1919 64.6323 86.2148 65.6573 85.2847 66.3984C84.1681 67.29 83.0697 68.2049 81.9896 69.143C80.8648 70.1283 79.7664 71.1357 78.6944 72.1653C78.4317 72.4187 78.1711 72.6738 77.9128 72.9306C74.2264 76.5594 70.9068 80.506 67.9973 84.7189C65.2342 88.7275 62.8976 92.9848 61.0218 97.4287C60.0728 99.6849 59.2527 101.988 58.5653 104.327C58.1506 105.27 57.96 106.287 58.007 107.306C58.1158 107.828 58.3958 108.305 58.8073 108.668C59.2188 109.031 59.7409 109.263 60.2994 109.33C62.8676 109.621 63.245 107.113 63.7609 105.378C64.4064 103.221 65.1727 101.098 66.0566 99.0185C67.8205 94.8843 70.0143 90.926 72.6056 87.2017C75.6881 82.7819 79.2496 78.6779 83.2323 74.9564C85.2623 73.0506 87.3858 71.2402 89.6026 69.5252C90.1062 69.248 90.5164 68.8416 90.7856 68.353C91.0548 67.8644 91.1719 67.3137 91.1234 66.7647C91.0232 66.1736 90.7048 65.6351 90.2247 65.2448C89.7445 64.8545 89.1337 64.6375 88.5005 64.6323Z" fill="white"/>
</g>
</g>
<g id="leaves">
<g id="leaf">
<path id="Vector_5" d="M163.742 237.734C162.567 237.459 161.605 236.302 161.941 235.144C164.012 228.006 169.767 212.296 182.755 205.718C190.066 202.015 201.292 202.716 214.286 208.96C214.559 209.094 214.792 209.297 214.96 209.551C215.129 209.804 215.227 210.097 215.245 210.401C215.49 214.301 215.858 225.783 208.991 232.249C202.757 238.123 193.371 244.703 163.742 237.734Z" fill="#11A52D"/>
<path id="Vector_6" d="M215.299 211.405C203.336 229.56 179.136 237.705 162.109 236.503C162.282 236.81 162.516 237.077 162.797 237.289C163.078 237.501 163.4 237.653 163.743 237.734C193.371 244.703 202.757 238.123 208.991 232.251C215.342 226.269 215.502 216 215.299 211.405Z" fill="#1D7A2C"/>
<path id="Vector_7" d="M219.89 210.11C219.82 208.981 219.451 207.89 218.821 206.95C218.19 206.011 217.32 205.256 216.301 204.765C208.189 200.867 200.222 198.806 193.262 198.806C188.51 198.806 184.266 199.737 180.652 201.565C166.561 208.702 160.08 224.854 157.471 233.848C157.227 234.692 157.159 235.578 157.272 236.449C157.384 237.321 157.674 238.16 158.124 238.915C158.617 239.752 159.275 240.48 160.058 241.056C160.84 241.631 161.731 242.042 162.677 242.264C171.613 244.366 179.17 245.388 185.781 245.388C199.887 245.388 206.806 240.702 212.182 235.639C217.927 230.228 220.592 221.401 219.89 210.11ZM208.991 232.253C204.669 236.324 198.828 240.735 185.781 240.735C180.009 240.735 172.83 239.873 163.742 237.735C163.543 237.687 163.35 237.615 163.168 237.52C182.562 219.702 202.113 217.013 202.319 216.987C202.622 216.95 202.898 216.797 203.089 216.559C203.28 216.321 203.369 216.017 203.338 215.714C203.308 215.411 203.159 215.132 202.925 214.937C202.69 214.742 202.389 214.647 202.085 214.672C182.607 216.145 169.014 226.838 162.525 233.233C165 225.502 170.825 211.761 182.754 205.719C185.677 204.238 189.225 203.462 193.261 203.462C199.323 203.462 206.485 205.213 214.285 208.961C214.558 209.094 214.791 209.298 214.96 209.551C215.129 209.804 215.227 210.098 215.245 210.401C215.488 214.301 215.856 225.786 208.991 232.253Z" fill="#3A2500"/>
</g>
<g id="leaf_2">
<path id="Vector_8" d="M136.258 237.735C137.433 237.459 138.395 236.302 138.059 235.145C135.988 228.006 130.233 212.297 117.245 205.718C109.934 202.015 98.7085 202.716 85.7145 208.96C85.4411 209.094 85.2082 209.298 85.0396 209.551C84.8709 209.804 84.7726 210.097 84.7548 210.401C84.5098 214.301 84.1424 225.783 91.0086 232.249C97.2433 238.123 106.629 244.703 136.258 237.735Z" fill="#11A52D"/>
<path id="Vector_9" d="M84.7019 211.405C96.6642 229.56 120.864 237.705 137.891 236.503C137.719 236.81 137.484 237.077 137.203 237.289C136.922 237.501 136.6 237.653 136.258 237.734C106.629 244.703 97.2433 238.123 91.0091 232.251C84.6578 226.269 84.4981 216 84.7019 211.405Z" fill="#1D7A2C"/>
<path id="Vector_10" d="M87.8185 235.639C93.1944 240.703 100.114 245.388 114.219 245.388C120.83 245.388 128.387 244.366 137.323 242.264C138.269 242.042 139.16 241.631 139.942 241.056C140.725 240.48 141.383 239.752 141.876 238.915C142.326 238.16 142.616 237.321 142.729 236.449C142.841 235.577 142.773 234.692 142.529 233.847C139.92 224.855 133.439 208.703 119.348 201.564C115.734 199.734 111.491 198.805 106.738 198.805C99.7779 198.805 91.811 200.866 83.6991 204.764C82.6797 205.256 81.8099 206.01 81.1791 206.95C80.5483 207.89 80.1794 208.981 80.1102 210.11C79.4077 221.401 82.0732 230.228 87.8185 235.639ZM84.7553 210.401C84.7731 210.097 84.8714 209.804 85.04 209.551C85.2087 209.298 85.4416 209.094 85.7149 208.96C93.5148 205.212 100.677 203.462 106.739 203.462C110.775 203.462 114.323 204.238 117.246 205.718C129.175 211.761 135 225.502 137.475 233.233C130.986 226.838 117.393 216.145 97.9154 214.671C97.6115 214.646 97.3099 214.741 97.0754 214.936C96.8409 215.131 96.6923 215.41 96.6615 215.714C96.6308 216.017 96.7203 216.32 96.9109 216.558C97.1016 216.796 97.378 216.95 97.6807 216.986C97.887 217.013 117.438 219.701 136.832 237.52C136.65 237.615 136.457 237.687 136.258 237.735C127.17 239.872 119.991 240.735 114.219 240.735C101.172 240.735 95.3313 236.323 91.0091 232.252C84.1429 225.786 84.5123 214.301 84.7553 210.4V210.401Z" fill="#3A2500"/>
</g>
</g>
</g>
</svg>
