<svg width="254" height="301" viewBox="0 0 254 301" fill="none" xmlns="http://www.w3.org/2000/svg">
<g id="Type=Border" clip-path="url(#clip0_27_68)">
<path id="Shape" d="M218.06 110.036C162.186 48.3826 126.919 0 126.919 0C126.919 0 92.9848 49.4667 35.7855 109.995C-37.0197 191.122 22.1782 231.77 32.0315 235.153C41.8849 238.535 65.7608 254.46 116.195 229.248C116.195 229.248 121.671 246.253 84.7841 297.238H169.016C132.128 246.253 137.616 229.248 137.616 229.248C188.05 254.463 211.938 238.622 221.791 235.24C231.645 231.857 290.865 191.163 218.06 110.036Z" fill="black"/>
<path id="Vector" fill-rule="evenodd" clip-rule="evenodd" d="M112 199C98.7392 199 86.0215 193.732 76.6447 184.355C67.2678 174.979 62 162.261 62 149C62 135.739 67.2678 123.021 76.6447 113.645C86.0215 104.268 98.7392 99 112 99H142C155.261 99 167.979 104.268 177.355 113.645C186.732 123.021 192 135.739 192 149C192 162.261 186.732 174.979 177.355 184.355C167.979 193.732 155.261 199 142 199H112ZM112 186.5C102.054 186.5 92.5161 182.549 85.4835 175.517C78.4509 168.484 74.5 158.946 74.5 149C74.5 139.054 78.4509 129.516 85.4835 122.483C92.5161 115.451 102.054 111.5 112 111.5H142C151.946 111.5 161.484 115.451 168.517 122.483C175.549 129.516 179.5 139.054 179.5 149C179.5 158.946 175.549 168.484 168.517 175.517C161.484 182.549 151.946 186.5 142 186.5H112Z" fill="white"/>
<path id="Vector_2" d="M102.235 125.455H116.915L137.215 158.285V125.455H151.765V172.545H137.225L116.835 139.705V172.545H102.245L102.235 125.455Z" fill="white"/>
</g>
<defs>
<clipPath id="clip0_27_68">
<rect width="254" height="301" fill="white"/>
</clipPath>
</defs>
</svg>
