<svg width="254" height="301" viewBox="0 0 254 301" fill="none" xmlns="http://www.w3.org/2000/svg">
<g id="Type=NoBorder" clip-path="url(#clip0_27_67)">
<path id="Shape" d="M218.06 110.036C162.186 48.3826 126.919 0 126.919 0C126.919 0 92.9848 49.4667 35.7855 109.995C-37.0197 191.122 22.1782 231.77 32.0315 235.153C41.8849 238.535 65.7608 254.46 116.195 229.248C116.195 229.248 121.671 246.253 84.7841 297.238H169.016C132.128 246.253 137.616 229.248 137.616 229.248C188.05 254.463 211.938 238.622 221.791 235.24C231.645 231.857 290.865 191.163 218.06 110.036Z" fill="black"/>
<path id="Vector" d="M102.235 125.455H116.915L137.215 158.285V125.455H151.765V172.545H137.225L116.835 139.705V172.545H102.245L102.235 125.455Z" fill="white"/>
</g>
<defs>
<clipPath id="clip0_27_67">
<rect width="254" height="301" fill="white"/>
</clipPath>
</defs>
</svg>
