<svg width="300" height="300" viewBox="0 0 300 300" fill="none" xmlns="http://www.w3.org/2000/svg">
<g id="star">
<g id="star_2">
<path id="Vector" d="M152.41 26.8137L190.533 104.228C190.766 104.701 191.11 105.11 191.536 105.42C191.962 105.73 192.456 105.932 192.977 106.007L278.221 118.422C278.82 118.509 279.383 118.762 279.846 119.153C280.309 119.545 280.654 120.058 280.841 120.635C281.028 121.213 281.051 121.831 280.905 122.42C280.76 123.009 280.453 123.546 280.019 123.97L218.337 184.229C217.96 184.597 217.678 185.052 217.515 185.553C217.353 186.055 217.314 186.589 217.403 187.108L231.965 272.196C232.068 272.794 232.001 273.409 231.773 273.972C231.545 274.534 231.164 275.021 230.674 275.378C230.184 275.735 229.604 275.947 229 275.991C228.396 276.034 227.792 275.907 227.256 275.625L151.01 235.454C150.545 235.208 150.026 235.08 149.5 235.08C148.974 235.08 148.456 235.208 147.99 235.454L71.7453 275.626C71.2093 275.909 70.6051 276.035 70.0009 275.992C69.3968 275.948 68.8169 275.736 68.3269 275.379C67.8368 275.022 67.4562 274.535 67.228 273.973C66.9999 273.41 66.9333 272.795 67.0359 272.197L81.5976 187.11C81.6867 186.59 81.6483 186.056 81.4857 185.554C81.3232 185.053 81.0414 184.598 80.6645 184.23L18.9808 123.97C18.5469 123.546 18.24 123.009 18.0947 122.42C17.9494 121.831 17.9716 121.213 18.1588 120.635C18.346 120.058 18.6906 119.545 19.1537 119.153C19.6168 118.762 20.18 118.509 20.7794 118.422L106.023 106.007C106.544 105.932 107.038 105.73 107.464 105.42C107.89 105.11 108.234 104.701 108.467 104.228L146.59 26.8137C146.858 26.2693 147.272 25.8109 147.786 25.4904C148.301 25.1699 148.894 25 149.5 25C150.106 25 150.699 25.1699 151.214 25.4904C151.728 25.8109 152.142 26.2693 152.41 26.8137Z" fill="#FFCC18"/>
<path id="border" d="M149.518 30.3772C150.099 30.373 150.67 30.5338 151.164 30.8409C151.658 31.1481 152.055 31.5891 152.309 32.1127L188.878 106.209C189.101 106.662 189.432 107.053 189.84 107.35C190.248 107.647 190.723 107.839 191.222 107.912L272.992 119.794C273.567 119.877 274.108 120.12 274.552 120.494C274.996 120.869 275.327 121.36 275.506 121.913C275.686 122.465 275.707 123.057 275.568 123.621C275.428 124.185 275.134 124.699 274.718 125.104L215.549 182.781C215.187 183.133 214.917 183.568 214.761 184.048C214.605 184.528 214.568 185.039 214.653 185.537L228.622 266.977C228.723 267.551 228.662 268.141 228.444 268.681C228.226 269.221 227.861 269.689 227.389 270.031C226.918 270.373 226.36 270.576 225.78 270.616C225.199 270.657 224.618 270.533 224.104 270.259L150.966 231.81C150.519 231.575 150.022 231.452 149.517 231.452C149.012 231.452 148.515 231.575 148.068 231.81L74.9308 270.26C74.4169 270.534 73.8364 270.658 73.2555 270.617C72.6746 270.577 72.1167 270.374 71.6456 270.032C71.1744 269.69 70.8091 269.222 70.5912 268.682C70.3733 268.142 70.3116 267.551 70.4132 266.978L84.3816 185.538C84.4669 185.04 84.4301 184.529 84.2741 184.049C84.1182 183.569 83.8479 183.134 83.4865 182.782L24.3164 125.104C23.9002 124.699 23.6057 124.185 23.4664 123.621C23.327 123.057 23.3483 122.465 23.5279 121.913C23.7074 121.36 24.038 120.869 24.4822 120.494C24.9265 120.12 25.4667 119.877 26.0417 119.794L107.812 107.912C108.311 107.839 108.786 107.647 109.194 107.35C109.603 107.053 109.933 106.662 110.156 106.209L146.725 32.1127C146.979 31.5889 147.376 31.1479 147.87 30.8407C148.364 30.5335 148.936 30.3728 149.518 30.3772ZM149.518 20.0001C146.998 19.9906 144.527 20.6914 142.387 22.022C140.247 23.3526 138.526 25.2592 137.42 27.5233L102.542 98.1912L24.55 109.524C22.059 109.886 19.719 110.938 17.7946 112.561C15.8702 114.183 14.4382 116.312 13.6603 118.706C12.8825 121.1 12.7899 123.663 13.393 126.107C13.9961 128.551 15.2709 130.777 17.0733 132.535L73.5048 187.545L60.1858 265.221C59.7567 267.703 60.0315 270.256 60.979 272.59C61.9265 274.923 63.5088 276.945 65.5465 278.425C67.5843 279.906 69.996 280.786 72.5083 280.966C75.0206 281.145 77.5331 280.618 79.7609 279.443L149.518 242.769L219.275 279.443C221.503 280.615 224.015 281.14 226.526 280.959C229.037 280.777 231.447 279.897 233.483 278.417C235.52 276.938 237.102 274.918 238.05 272.586C238.999 270.253 239.275 267.703 238.849 265.221L225.527 187.545L281.959 132.535C283.761 130.777 285.036 128.551 285.639 126.107C286.242 123.663 286.15 121.1 285.372 118.706C284.594 116.312 283.162 114.183 281.237 112.561C279.313 110.938 276.973 109.886 274.482 109.524L196.493 98.1912L161.615 27.5233C160.509 25.2592 158.788 23.3526 156.648 22.022C154.508 20.6914 152.037 19.9906 149.518 20.0001Z" fill="#3A2500"/>
<g id="gloss">
<path id="Vector_2" d="M73.6319 116.964L42.8759 120.232C41.4791 120.381 40.403 121.927 40.4725 123.687L40.5317 125.185C40.6011 126.945 41.7898 128.251 43.1866 128.102L73.9426 124.834C75.3394 124.686 76.4154 123.139 76.346 121.38L76.2868 119.881C76.2174 118.122 75.0287 116.816 73.6319 116.964Z" fill="white"/>
<path id="Vector_3" d="M82.9686 115.974L81.3762 116.143C79.9794 116.291 78.9033 117.838 78.9728 119.597L79.0319 121.096C79.1014 122.855 80.29 124.161 81.6869 124.013L83.2793 123.844C84.6761 123.695 85.7521 122.149 85.6827 120.389L85.6235 118.891C85.5541 117.131 84.3654 115.825 82.9686 115.974Z" fill="white"/>
<path id="Vector_4" d="M132.768 69.475L119.276 99.1821C118.663 100.531 119.52 101.943 121.189 102.335L123.052 102.773C124.721 103.166 126.571 102.39 127.184 101.041L140.675 71.3335C141.288 69.9843 140.432 68.5726 138.763 68.1803L136.899 67.7423C135.23 67.35 133.38 68.1258 132.768 69.475Z" fill="white"/>
<path id="Vector_5" d="M140.79 51.8107L137.717 58.5787C137.104 59.9279 137.96 61.3396 139.629 61.7319L141.493 62.1699C143.162 62.5622 145.011 61.7864 145.624 60.4372L148.698 53.6693C149.311 52.3201 148.454 50.9084 146.785 50.5161L144.922 50.078C143.253 49.6858 141.403 50.4615 140.79 51.8107Z" fill="white"/>
</g>
<g id="Group 8">
<rect id="Rectangle 1" x="129" y="137" width="12" height="27" rx="5" fill="#3A2500"/>
<rect id="Rectangle 2" x="159" y="137" width="12" height="27" rx="5" fill="#3A2500"/>
</g>
</g>
</g>
</svg>
