<svg width="300" height="365" viewBox="0 0 300 365" fill="none" xmlns="http://www.w3.org/2000/svg">
<g id="Type=Up">
<g id="mushroom head">
<path id="crown" d="M155.754 38.916C187.5 40.23 258.915 58.329 271.645 152.209C274 169.376 265.083 207.863 231.583 218.286C198.083 228.709 149.666 226.359 149.666 226.359C149.666 226.359 101.249 228.709 67.749 218.286C34.249 207.863 25.332 169.375 27.687 152.209C40.419 58.329 111.747 40.233 143.5 38.918L155.754 38.916Z" fill="#D3EDA8"/>
<path id="center spot" d="M150.5 148C183.361 148 210 121.361 210 88.5C210 55.6391 183.361 29 150.5 29C117.639 29 91 55.6391 91 88.5C91 121.361 117.639 148 150.5 148Z" fill="#11A52D"/>
<path id="right spot" d="M250.716 92.02C245.628 98.1663 242.052 105.421 240.278 113.2C238.503 120.979 238.578 129.066 240.497 136.811C242.415 144.556 246.125 151.743 251.326 157.794C256.527 163.845 263.076 168.591 270.445 171.651C271.92 165.281 272.325 158.711 271.645 152.208C268.24 127.1 260.635 107.416 250.716 92.02Z" fill="#11A52D"/>
<path id="left spot" d="M48.9 91.574C38.847 107.036 31.13 126.854 27.692 152.209C27.0059 158.795 27.4291 165.448 28.944 171.894C38.4067 168.107 46.518 161.573 52.2317 153.133C57.9454 144.693 60.9995 134.734 61 124.542C61.0157 112.463 56.7257 100.775 48.9 91.574Z" fill="#11A52D"/>
<path id="glow" d="M101.79 55.3055C100.325 55.1555 98.9369 56.2376 97.7095 56.921C96.2708 57.5228 94.9352 58.3598 93.7545 59.3995C93.3704 59.8593 93.1184 60.4196 93.0268 61.0173C92.9353 61.615 93.008 62.2262 93.2366 62.782C93.4652 63.3377 93.8406 63.8158 94.3206 64.1624C94.8005 64.5089 95.3658 64.71 95.9527 64.7431C97.3699 64.8044 98.6545 63.7138 99.8419 63.0409C101.225 62.4638 102.525 61.6929 103.704 60.7502C104.105 60.311 104.38 59.7666 104.499 59.1777C104.618 58.5887 104.576 57.9782 104.378 57.414C104.18 56.8498 103.833 56.354 103.376 55.9818C102.919 55.6095 102.37 55.3754 101.79 55.3055ZM57.7906 97.1423C60.3377 98.3774 61.8783 95.8146 63.2765 94.0932C64.9472 92.0384 66.6758 90.0356 68.4624 88.0849C72.0052 84.2151 75.7705 80.5673 79.7378 77.1612C81.7094 75.4702 83.7295 73.8416 85.7982 72.2753C87.4904 70.9956 89.6968 69.5962 88.6632 67.0696C88.4682 66.6003 88.1681 66.1854 87.7872 65.8586C87.4063 65.5318 86.9554 65.3024 86.4711 65.189C85.8652 65.1071 85.2484 65.1681 84.6674 65.3676C84.0864 65.5671 83.5565 65.8998 83.1179 66.3404C81.0902 67.8441 79.1045 69.4061 77.1606 71.0264C70.5007 76.5884 64.3676 82.7871 58.8442 89.5384C58.4794 89.9842 58.117 90.432 57.7569 90.8817C57.4034 91.3243 57.0164 91.7612 56.6946 92.2274C55.3562 94.1666 56.1897 95.884 57.7906 97.1423Z" fill="white"/>
<path id="Vector" d="M114.986 51.5291C113.472 51.5779 112 51.948 110.689 52.6093C110.18 52.8476 109.75 53.2009 109.441 53.6354C109.132 54.07 108.954 54.571 108.923 55.0905C108.893 55.61 109.012 56.1304 109.269 56.6017C109.526 57.073 109.911 57.4794 110.389 57.7818C110.917 58.0789 111.517 58.2531 112.134 58.2881C112.751 58.3231 113.364 58.2179 113.918 57.9821C115.221 57.7557 116.417 57.1936 117.361 56.3634C117.705 55.9386 117.918 55.4377 117.978 54.9106C118.038 54.3835 117.943 53.8487 117.703 53.3595C117.463 52.8703 117.085 52.4438 116.608 52.1226C116.132 51.8014 115.572 51.5968 114.986 51.5291Z" fill="white"/>
<path id="crown border" d="M155.754 38.916C187.5 40.23 258.915 58.329 271.645 152.209C274 169.376 265.083 207.863 231.583 218.286C208.494 225.469 178.32 226.586 161.794 226.586C154.342 226.586 149.666 226.359 149.666 226.359C149.666 226.359 144.988 226.586 137.538 226.586C121.013 226.586 90.838 225.47 67.749 218.286C34.249 207.863 25.332 169.375 27.687 152.209C40.419 58.329 111.747 40.233 143.5 38.918H155.757M155.757 29.002L143.5 28.963C143.363 28.963 143.226 28.945 143.089 28.95C131.409 29.434 101.172 32.704 72.72 52.68C58.698 62.5316 46.9087 75.2266 38.12 89.938C27.773 107.138 20.929 127.638 17.779 150.868C16.479 160.31 17.756 176.09 25.218 192.02C31.098 204.574 42.735 220.977 64.779 227.836C89.253 235.45 120.87 236.587 137.539 236.587C143.863 236.587 148.253 236.428 149.667 236.37C151.081 236.429 155.467 236.587 161.795 236.587C178.464 236.587 210.081 235.45 234.555 227.836C256.6 220.977 268.236 204.573 274.117 192.02C281.579 176.09 282.851 160.309 281.554 150.851C278.406 127.637 271.554 107.135 261.2 89.93C252.404 75.2147 240.606 62.5174 226.576 52.665C198.102 32.691 167.853 29.451 156.169 28.965C156.032 28.959 155.894 28.999 155.757 28.999V29.002Z" fill="#3A2500"/>
</g>
<g id="mushroom stem">
<path id="stem body" d="M150 179.58C165.707 179.58 180.707 182.192 193.379 187.135C204.008 191.281 212.445 196.93 217.424 203.191V215.965C217.384 222.237 215.457 228.351 211.894 233.513C211.502 233.852 211.147 234.231 210.833 234.644C207.884 238.639 204.037 241.885 199.602 244.119C195.167 246.354 190.269 247.513 185.303 247.505H114.697C109.731 247.514 104.833 246.354 100.398 244.12C95.9631 241.886 92.1157 238.64 89.1667 234.645C88.8533 234.23 88.4979 233.849 88.1061 233.508C84.5428 228.349 82.6158 222.236 82.5757 215.966V203.192C87.5553 196.931 95.9932 191.281 106.621 187.136C119.292 182.192 134.292 179.58 150 179.58" fill="#FFE9D7"/>
<path id="shadow" d="M114.697 247.505H185.303C190.269 247.514 195.167 246.354 199.602 244.12C204.037 241.886 207.884 238.64 210.833 234.645C211.147 234.23 211.502 233.849 211.894 233.508C215.457 228.35 217.384 222.238 217.424 215.968V203.192C216.35 201.854 215.18 200.595 213.926 199.425C205.682 231.682 166.653 243.734 95.2546 240.846C100.807 245.18 107.653 247.525 114.697 247.505Z" fill="#E5B89A"/>
<path id="stem border" d="M150 179.58C165.707 179.58 180.707 182.192 193.379 187.135C204.008 191.281 212.445 196.93 217.424 203.191V215.965C217.384 222.237 215.457 228.351 211.894 233.513C211.502 233.852 211.147 234.231 210.833 234.644C207.884 238.639 204.037 241.885 199.602 244.119C195.167 246.354 190.269 247.513 185.303 247.505H114.697C109.731 247.514 104.833 246.354 100.398 244.12C95.9631 241.886 92.1157 238.64 89.1667 234.645C88.8533 234.23 88.4979 233.849 88.1061 233.508C84.5429 228.349 82.6158 222.236 82.5758 215.966V203.192C87.5553 196.931 95.9932 191.281 106.621 187.136C119.292 182.192 134.292 179.58 150 179.58M150 172.005C115.619 172.005 86.3636 183.964 75 200.717V215.97C75.0361 224.132 77.6473 232.075 82.4614 238.666C82.6705 238.848 82.8924 239.011 83.1068 239.192C86.7732 244.116 91.5379 248.116 97.022 250.874C102.506 253.633 108.558 255.073 114.697 255.081H185.303C191.442 255.073 197.495 253.632 202.979 250.872C208.463 248.113 213.228 244.112 216.894 239.188C217.108 239.007 217.33 238.836 217.539 238.654C222.353 232.065 224.964 224.125 225 215.966V200.712C213.636 183.964 184.381 172 150 172V172.005Z" fill="#3A2500"/>
<g id="Group 8">
<rect id="Rectangle 1" x="129" y="173" width="12" height="27" rx="5" fill="#3A2500"/>
<rect id="Rectangle 2" x="159" y="173" width="12" height="27" rx="5" fill="#3A2500"/>
</g>
</g>
<g id="1up">
<g id="Vector 3">
<path fill-rule="evenodd" clip-rule="evenodd" d="M190.286 329.806C197.014 329.806 210.082 328.253 210.082 328.253C210.082 328.253 209.953 318.42 210.082 314.28L222.115 316.414L233.954 306.322L238.612 287.303L219.204 273.717L187.375 277.599L190.286 329.806ZM208.141 302.441V288.855L219.204 291.766L217.069 301.47L208.141 302.441Z" fill="white"/>
<path d="M208.141 288.855V302.441L217.069 301.47L219.204 291.766L208.141 288.855Z" fill="white"/>
<path fill-rule="evenodd" clip-rule="evenodd" d="M190.286 329.806C197.014 329.806 210.082 328.253 210.082 328.253C210.082 328.253 209.953 318.42 210.082 314.28L222.115 316.414L233.954 306.322L238.612 287.303L219.204 273.717L187.375 277.599L190.286 329.806ZM208.141 302.441V288.855L219.204 291.766L217.069 301.47L208.141 302.441Z" stroke="#3A2500" stroke-width="6"/>
<path d="M208.141 288.855V302.441L217.069 301.47L219.204 291.766L208.141 288.855Z" stroke="#3A2500" stroke-width="6"/>
</g>
<path id="Vector 6" d="M207.559 302.441V288.855L218.622 291.766L216.487 301.47L207.559 302.441Z" fill="#3A2500"/>
<path id="Vector 5" d="M140.02 319.132L138.855 281.868L161.951 283.227L159.039 312.339L171.461 310.204L170.49 286.138L192.421 289.049L189.898 315.444L180.97 328.447L151.664 330L140.02 319.132Z" fill="white" stroke="#3A2500" stroke-width="6"/>
<path id="Vector 4" d="M110.52 308.263V291.572L134.197 295.648L131.48 309.428L110.52 308.263Z" fill="white" stroke="#3A2500" stroke-width="6"/>
<path id="Vector 2" d="M80.0493 302.247L62 287.303L84.125 271L102.757 272.164L105.862 329.612H84.125L86.4539 291.572L80.0493 302.247Z" fill="white" stroke="#3A2500" stroke-width="6"/>
</g>
</g>
</svg>
